{"title":"In Their Skin 2012 WEBRip-DQ1","uid":7799325,"size":1198783680,"categoryP":"video","categoryS":"movies","magnet":"?xt=urn:btih:94a581123d9df380b01f07359994813c39643c69&amp;dn=In+Their+Skin+2012+WEBRip-DQ1&amp;tr=udp%3A%2F%2Ftracker.openbittorrent.com%3A80&amp;tr=udp%3A%2F%2Fopen.demonii.com%3A1337&amp;tr=udp%3A%2F%2Ftracker.coppersurfer.tk%3A6969&amp;tr=udp%3A%2F%2Fexodus.desync.com%3A6969","seeders":0,"leechers":1,"uploader":"Gh0stNet","files":3,"time":1352238757,"description":"The Hughes cottage vacation is violently interrupted by a family on a murderous and identity stealing journey, in search of the &quot;perfect&quot; life.\n\n\n\nGeneral\nComplete name : In Their Skin.mp4\nFormat : MPEG-4\nFormat profile : Base Media\nCodec ID : isom\nFile size : 1.12 GiB\nDuration : 1h 36mn\nOverall bit rate mode : Variable\nOverall bit rate : 1 656 Kbps\nMovie name : In Their Skin\nPerformer : Jeremy Power Regimbal\nGenre : Thriller\nRecorded date : UTC 2012-11-09 08:00:00\nTagged date : UTC 2012-10-17 05:33:41\nWriting application : Lavf54.0.100\nCover : Yes\n\nVideo\nID : 1\nFormat : MPEG-4 Visual\nFormat profile : Simple@L1\nFormat settings, BVOP : No\nFormat settings, QPel : No\nFormat settings, GMC : No warppoints\nFormat settings, Matrix : Default (H.263)\nCodec ID : 20\nDuration : 1h 36mn\nBit rate mode : Variable\nBit rate : 1 499 Kbps\nMaximum bit rate : 6 533 Kbps\nWidth : 852 pixels\nHeight : 348 pixels\nDisplay aspect ratio : 2.40:1\nFrame rate mode : Constant\nFrame rate : 23.976 fps\nColor space : YUV\nChroma subsampling : 4:2:0\nBit depth : 8 bits\nScan type : Progressive\nCompression mode : Lossy\nBits/(Pixel*Frame) : 0.211\nStream size : 1.01 GiB (91%)\nWriting library : Lavc54.1.100\n\nAudio\nID : 2\nFormat : AAC\nFormat/Info : Advanced Audio Codec\nFormat profile : LC\nCodec ID : 40\nDuration : 1h 36mn\nBit rate mode : Variable\nBit rate : 152 Kbps\nMaximum bit rate : 228 Kbps\nChannel(s) : 2 channels\nChannel positions : Front: L R\nSampling rate : 44.1 KHz\nCompression mode : Lossy\nDelay relative to video : -23ms\nStream size : 105 MiB (9%)\nLanguage : English\n\nSource Used: Own\n &lt;a href=&quot;\nhttp://old.rapidimg.org/images/IvU0g.jpg&quot; rel=&quot;nofollow&quot; target=&quot;_NEW&quot;&gt;\nhttp://old.rapidimg.org/images/IvU0g.jpg&lt;/a&gt; &lt;a href=&quot;\nhttp://old.rapidimg.org/images/DfIKP.jpg&quot; rel=&quot;nofollow&quot; target=&quot;_NEW&quot;&gt;\nhttp://old.rapidimg.org/images/DfIKP.jpg&lt;/a&gt; &lt;a href=&quot;\nhttp://old.rapidimg.org/images/JNzxu.jpg&quot; rel=&quot;nofollow&quot; target=&quot;_NEW&quot;&gt;\nhttp://old.rapidimg.org/images/JNzxu.jpg&lt;/a&gt; &lt;a href=&quot;\nhttp://old.rapidimg.org/images/NV8wX.jpg&quot; rel=&quot;nofollow&quot; target=&quot;_NEW&quot;&gt;\nhttp://old.rapidimg.org/images/NV8wX.jpg&lt;/a&gt; &lt;a href=&quot;\nhttp://old.rapidimg.org/images/LaFml.jpg&quot; rel=&quot;nofollow&quot; target=&quot;_NEW&quot;&gt;\nhttp://old.rapidimg.org/images/LaFml.jpg&lt;/a&gt; &lt;a href=&quot;\nhttp://old.rapidimg.org/images/8E6sV.jpg&quot; rel=&quot;nofollow&quot; target=&quot;_NEW&quot;&gt;\nhttp://old.rapidimg.org/images/8E6sV.jpg&lt;/a&gt; &lt;a href=&quot;\nhttp://old.rapidimg.org/images/Fg9sr.jpg&quot; rel=&quot;nofollow&quot; target=&quot;_NEW&quot;&gt;\nhttp://old.rapidimg.org/images/Fg9sr.jpg&lt;/a&gt;","torrent":{"xt":"urn:btih:94a581123d9df380b01f07359994813c39643c69","amp;dn":"In+Their+Skin+2012+WEBRip-DQ1","amp;tr":["udp%3A%2F%2Ftracker.openbittorrent.com%3A80","udp%3A%2F%2Fopen.demonii.com%3A1337","udp%3A%2F%2Ftracker.coppersurfer.tk%3A6969","udp%3A%2F%2Fexodus.desync.com%3A6969"],"infoHash":"94a581123d9df380b01f07359994813c39643c69","infoHashBuffer":{"type":"Buffer","data":[148,165,129,18,61,157,243,128,176,31,7,53,153,148,129,60,57,100,60,105]},"announce":[],"urlList":[]}}